<?xml version="1.0" encoding="UTF-8" standalone="no"?>
<svg
   version="1.0"
   width="1024.000000pt"
   height="1024.000000pt"
   viewBox="0 0 1024.000000 1024.000000"
   preserveAspectRatio="xMidYMid meet"
   id="svg20"
   sodipodi:docname="duck.svg"
   inkscape:version="1.4.2 (f4327f4, 2025-05-13)"
   xmlns:inkscape="http://www.inkscape.org/namespaces/inkscape"
   xmlns:sodipodi="http://sodipodi.sourceforge.net/DTD/sodipodi-0.dtd"
   xmlns:xlink="http://www.w3.org/1999/xlink"
   xmlns="http://www.w3.org/2000/svg"
   xmlns:svg="http://www.w3.org/2000/svg">
  <defs
     id="defs20" />
  <sodipodi:namedview
     id="namedview20"
     pagecolor="#505050"
     bordercolor="#eeeeee"
     borderopacity="1"
     inkscape:showpageshadow="0"
     inkscape:pageopacity="0"
     inkscape:pagecheckerboard="0"
     inkscape:deskcolor="#505050"
     inkscape:document-units="pt"
     inkscape:zoom="0.15109746"
     inkscape:cx="407.02206"
     inkscape:cy="1260.7756"
     inkscape:window-width="1499"
     inkscape:window-height="1211"
     inkscape:window-x="3482"
     inkscape:window-y="200"
     inkscape:window-maximized="0"
     inkscape:current-layer="svg20"
     showguides="true">
    <sodipodi:guide
       position="322.63943,744.79277"
       orientation="0,-1"
       id="guide1"
       inkscape:locked="false" />
    <sodipodi:guide
       position="413.22665,324.1206"
       orientation="0,-1"
       id="guide2"
       inkscape:locked="false" />
    <sodipodi:guide
       position="444.24967,571.06385"
       orientation="1,0"
       id="guide3"
       inkscape:locked="false" />
    <sodipodi:guide
       position="65.768806,509.01781"
       orientation="1,0"
       id="guide4"
       inkscape:locked="false" />
    <sodipodi:guide
       position="-102.99643,363.83006"
       orientation="1,0"
       id="guide5"
       inkscape:locked="false" />
  </sodipodi:namedview>
  <metadata
     id="metadata1">
Created by potrace 1.16, written by Peter Selinger 2001-2019
</metadata>
  <g
     transform="matrix(0.2887543,0,0,-0.25427141,-225.03713,1882.9678)"
     fill="#000000"
     stroke="none"
     id="g20">
    <path
       d="m 2315,7380 c -444,-70 -749,-366 -839,-814 l -22,-110 -75,-39 c -99,-51 -173,-58 -309,-28 -119,27 -175,27 -218,1 -47,-29 -65,-79 -60,-165 8,-125 71,-231 190,-320 131,-98 276,-154 480,-186 73,-11 144,-23 157,-26 48,-12 71,-130 35,-180 -11,-16 -79,-72 -150,-125 -292,-220 -425,-398 -500,-673 -25,-91 -28,-115 -28,-275 0,-162 2,-182 28,-265 51,-168 160,-336 290,-448 275,-236 649,-347 1174,-347 808,0 1392,303 1677,869 61,122 107,264 142,438 26,127 28,155 28,363 -1,200 -3,234 -23,303 -56,203 -175,336 -300,337 -55,0 -113,-30 -240,-124 -166,-123 -227,-147 -375,-147 -99,0 -266,18 -287,31 -22,14 -3,52 69,138 177,208 259,370 295,581 40,233 7,458 -96,666 -137,275 -353,446 -667,526 -89,22 -288,32 -376,19 z m 330,-159 c 338,-82 560,-299 652,-639 22,-81 27,-118 27,-227 0,-256 -68,-424 -268,-663 -92,-110 -118,-158 -118,-228 -1,-80 37,-130 122,-158 70,-24 230,-39 353,-34 170,8 243,38 447,188 52,39 106,73 119,77 54,14 110,-49 154,-174 37,-102 51,-224 44,-378 -32,-678 -377,-1162 -966,-1355 -197,-64 -462,-100 -740,-100 -491,0 -832,97 -1077,306 -64,55 -163,182 -203,263 -131,258 -91,626 94,886 57,80 167,184 295,280 140,104 188,150 216,210 28,58 31,138 9,200 -8,22 -15,41 -15,41 0,1 29,4 64,8 35,3 85,14 111,22 126,44 169,185 89,291 -14,18 -67,66 -117,106 -58,46 -121,109 -166,166 -49,61 -90,101 -121,119 l -47,27 18,90 c 55,273 200,474 430,598 123,67 239,95 399,96 82,1 138,-5 195,-18 z M 1579,6303 c 12,-10 52,-56 89,-103 40,-50 106,-116 164,-162 103,-83 127,-119 94,-144 -33,-23 -159,-39 -311,-38 -126,1 -165,5 -245,26 -188,50 -350,154 -402,258 -15,30 -30,70 -33,89 -7,33 -6,33 21,28 16,-2 75,-13 131,-23 137,-25 234,-12 343,45 84,44 118,49 149,24 z"
       id="path7" />
    <path
       d="m 2225,6602 c -105,-65 -137,-190 -70,-278 33,-44 79,-64 142,-64 102,0 160,77 150,198 -5,71 -23,103 -77,140 -41,27 -103,29 -145,4 z"
       id="path8" />
    <path
       d="m 2530,4970 c -258,-65 -426,-334 -376,-599 41,-217 183,-366 407,-428 50,-14 100,-18 224,-17 140,0 172,4 260,27 132,35 317,128 421,211 197,156 355,420 380,634 9,81 -13,127 -73,154 l -44,19 -87,-40 c -197,-90 -302,-90 -647,-4 -157,40 -196,46 -305,49 -69,2 -141,-1 -160,-6 z m 452,-190 c 323,-80 468,-83 635,-16 l 82,33 -6,-31 c -10,-55 -62,-181 -101,-244 -98,-161 -215,-270 -377,-352 -143,-72 -268,-103 -420,-104 -248,-1 -388,71 -468,243 -28,59 -32,76 -32,156 0,77 4,98 27,147 51,109 161,199 266,218 79,15 181,1 394,-50 z"
       id="path9"
       style="display:inline" />
  </g>
  <path
     style="display:inline;fill:#ffcbcb;stroke-width:2.37761"
     d="M 426.43845,982.62174 C 332.02088,976.83991 255.65499,955.84536 198.28434,919.89751 163.21755,897.92506 128.68533,859.78707 113.37937,826.12705 88.520237,771.45817 94.934451,699.7073 129.89865,641.33901 c 19.67423,-32.84357 46.4912,-57.94631 103.55138,-96.93191 55.84565,-38.15579 64.75974,-48.50442 66.72422,-77.4617 0.79451,-11.71147 -0.0321,-20.17904 -2.62371,-26.87669 l -3.78366,-9.77836 21.60055,-2.59372 c 28.77111,-3.45472 46.88128,-11.27583 56.25796,-24.29562 9.22104,-12.80373 11.31118,-25.61957 6.49725,-39.83881 -4.44777,-13.13772 -9.32424,-18.06589 -43.8463,-44.31114 -14.28593,-10.86082 -35.1893,-29.23366 -46.45205,-40.82851 -18.13369,-18.66861 -29.37053,-27.68044 -44.12912,-35.39126 -4.13081,-2.15819 -4.13077,-3.29525 5.2e-4,-21.1958 16.84273,-72.97795 61.20295,-125.996469 131.34,-156.975016 37.40215,-16.519987 55.81582,-19.929259 108.1002,-20.014669 41.13341,-0.06712 45.98909,0.36727 67.14339,6.00701 47.80027,12.743575 83.75154,31.551649 113.63981,59.451175 29.0372,27.10515 49.15934,59.5751 61.72281,99.59872 6.22513,19.83153 6.90399,25.57352 6.8245,57.72052 -0.16979,68.6646 -14.10783,97.5422 -86.15007,178.4911 -18.31123,20.57507 -24.59862,34.29563 -23.3879,51.0381 2.34788,32.47056 27.6499,43.02127 108.51142,45.24846 70.50298,1.9419 88.30958,-3.10516 154.25809,-43.72265 43.09462,-26.5418 45.88679,-27.10068 60.80935,-12.17223 48.26241,48.28134 43.20185,190.79982 -10.40965,293.16362 -51.30716,97.96391 -153.13361,166.07864 -284.73615,190.46835 -62.61806,11.60492 -155.28514,16.74818 -224.92304,12.48376 z M 648.4475,879.95694 c 36.92484,-7.8843 84.43104,-27.37987 118.46434,-48.61534 37.12913,-23.16718 72.7574,-61.2801 95.12326,-101.75708 16.27248,-29.44938 23.9747,-52.81708 23.92394,-72.58269 -0.0439,-17.14384 -3.27055,-23.72929 -15.05134,-30.72025 -14.46008,-8.58099 -18.48545,-8.46696 -43.82189,1.24105 -59.24799,22.7017 -83.6299,23.0922 -180.58367,2.8922 -57.10081,-11.89675 -70.33958,-13.58158 -106.87587,-13.60151 -26.14639,-0.0135 -33.45646,0.79302 -47.32648,5.22636 -45.03968,14.39617 -81.60947,50.13519 -93.93332,91.79934 -4.56578,15.43598 -5.11519,47.1386 -1.10994,64.04745 13.18537,55.6637 71.17075,100.11952 139.08733,106.63447 28.92184,2.77433 89.23576,0.31882 112.10364,-4.564 z M 460.74218,287.43331 c 15.67039,-6.94153 23.76001,-24.31088 21.74289,-46.68456 -2.23527,-24.7928 -16.56613,-38.91456 -41.32542,-40.7226 -17.58137,-1.28387 -26.60202,2.07378 -39.06348,14.5402 -12.40763,12.41241 -16.10409,22.07963 -14.74933,38.57277 1.12099,13.64698 8.69407,25.41244 20.88445,32.44606 12.58087,7.25885 38.2562,8.16254 52.51089,1.84813 z"
     id="path21" />
  <path
     style="display:inline;fill:#fff159;fill-opacity:1;stroke-width:2.37761"
     d="m 549.05536,846.3232 c -50.7934,-5.17799 -83.71204,-25.368 -102.56447,-62.90597 -5.55494,-11.06072 -6.42816,-15.99187 -6.42816,-36.30091 0,-20.70518 0.78746,-24.96719 6.61784,-35.8199 9.62946,-17.92419 33.48396,-39.3849 53.35151,-47.99764 29.04404,-12.59083 51.23581,-11.62986 138.92722,6.01589 95.02167,19.12077 139.33292,19.39813 187.22002,1.17188 6.81653,-2.59442 13.00635,-4.17774 13.755,-3.51845 2.15278,1.89567 -6.76164,25.10427 -17.34563,45.15926 -13.34651,25.28936 -31.89344,48.15707 -55.08227,67.9145 -44.71282,38.09637 -99.67491,60.90684 -160.21857,66.49433 -27.17865,2.50829 -31.70043,2.49176 -58.23249,-0.21307 z"
     id="path22" />
  <path
     style="display:inline;fill:#ffed43;fill-opacity:1;stroke-width:2.37761"
     d="M 418.52619,981.32588 C 277.88477,968.41563 190.35437,930.87113 136.84514,860.50408 110.82666,826.28861 100.54512,795.90633 100.54512,753.23649 c 0,-38.56036 9.63044,-74.14679 29.35852,-108.48549 18.74537,-32.6282 46.68247,-59.07329 106.19516,-100.52372 55.05644,-38.34668 62.53114,-47.29777 64.13294,-76.80047 0.57217,-10.53764 -0.13513,-22.90797 -1.57171,-27.48957 -2.94755,-9.40033 -5.4885,-8.08951 24.8519,-12.82059 22.268,-3.4723 35.16312,-8.79807 44.86679,-18.53023 14.19501,-14.23673 16.96902,-35.27222 7.07306,-53.63601 -2.82329,-5.23911 -18.24637,-19.38471 -40.72628,-37.35299 -19.90021,-15.90621 -36.55015,-29.87668 -36.99988,-31.04546 -1.44265,-3.74918 -41.10588,-38.15246 -48.32482,-41.91618 -8.5732,-4.4698 -8.64974,-7.41524 -0.89263,-34.34289 19.99155,-69.39779 63.87553,-117.501261 134.02475,-146.911385 31.15643,-13.06233 45.73144,-15.745045 93.03179,-17.123654 36.77805,-1.071906 44.32574,-0.664945 62.4277,3.365994 48.64531,10.832343 85.27637,28.364917 117.50688,56.241805 26.66291,23.06135 44.86216,47.17605 58.03836,76.90305 15.35928,34.65222 18.89664,54.00063 17.14465,93.77907 -2.73401,62.07844 -16.20811,89.61461 -78.60571,160.64202 -23.24765,26.46294 -29.53001,38.45412 -29.56163,56.42515 -0.0641,36.31366 22.76583,46.67014 107.65803,48.83755 73.61495,1.87944 84.36599,-0.9225 150.07363,-39.11247 26.74965,-15.54719 45.25351,-24.87414 49.34811,-24.87414 13.06006,0 31.15439,24.7864 40.46792,55.43462 6.64961,21.88195 9.19693,83.77745 4.76462,115.76847 -18.66458,134.71089 -92.69463,232.42245 -216.78341,286.13015 -75.22766,32.55975 -143.63096,44.43319 -263.50625,45.7393 -36.23214,0.39475 -70.43726,0.29909 -76.01142,-0.21257 z M 619.9346,884.42815 c 63.29576,-5.71968 131.50869,-35.20012 180.16633,-77.86469 39.67683,-34.78997 70.00577,-78.971 81.96245,-119.39708 4.94195,-16.70893 5.14137,-43.99134 0.38083,-52.09783 -3.94499,-6.71774 -20.82728,-16.04094 -29.04673,-16.04094 -2.91769,0 -16.86497,4.05554 -30.99399,9.01231 -59.06085,20.71984 -78.95895,20.66046 -183.44419,-0.54736 -41.44943,-8.4132 -49.46294,-9.34292 -87.90778,-10.19912 -38.26271,-0.85217 -43.8677,-0.483 -58.71271,3.86718 -19.77249,5.7941 -47.72046,22.59873 -62.05083,37.31009 -12.53641,12.86976 -26.22206,35.20631 -31.78738,51.88077 -6.38984,19.14483 -5.45953,61.97899 1.75062,80.60284 8.31188,21.46961 21.01755,38.50463 41.57197,55.7372 21.14903,17.73117 50.00834,31.19356 78.05153,36.4099 21.27474,3.95732 64.59301,4.53172 100.05988,1.32673 z M 463.86011,287.04062 c 4.12511,-2.12152 10.24486,-8.36232 13.59937,-13.86851 5.40048,-8.8643 5.98689,-12.22299 5.11914,-29.31872 -0.82266,-16.20694 -2.04094,-20.71929 -7.58642,-28.09832 -8.48123,-11.28559 -20.32925,-16.18157 -39.15818,-16.18157 -17.69895,0 -28.63294,5.495 -40.21302,20.20956 -6.44159,8.1851 -7.60203,11.9165 -8.22698,26.45355 -0.61589,14.32462 0.16257,18.263 5.06743,25.63912 10.69755,16.08739 25.48781,22.02913 50.04899,20.10635 7.61726,-0.59629 17.22453,-2.81995 21.34967,-4.94146 z"
     id="path23" />
  <path
     style="display:inline;fill:#ffe707;fill-opacity:1;stroke-width:2.37761"
     d="m 548.01565,845.12875 c -50.51892,-6.36147 -86.10731,-29.49017 -101.66778,-66.07321 -7.83849,-18.42861 -6.55457,-52.48073 2.58288,-68.50148 9.03934,-15.84871 36.07659,-39.22233 54.47485,-47.09335 13.84593,-5.92346 17.46286,-6.48553 40.53943,-6.29983 18.27082,0.14702 35.9366,2.20753 63.34282,7.38816 127.02242,24.01112 159.56734,25.53948 211.13201,9.91498 10.21329,-3.09474 19.05254,-5.20153 19.64285,-4.68177 0.59018,0.51973 -1.0598,6.38079 -3.66666,13.02454 -35.52683,90.54167 -120.04144,150.71905 -228.30858,162.5637 -24.50268,2.68066 -35.21835,2.63606 -58.07182,-0.24181 z"
     id="path24" />
  <path
     style="display:inline;fill:#ffe707;fill-opacity:1;stroke-width:2.37761"
     d="M 403.32389,979.10388 C 316.90368,967.59537 258.1799,950.9232 212.86783,925.03172 c -19.91427,-11.37908 -51.17525,-37.44226 -67.30794,-56.11654 -16.30568,-18.87455 -33.38306,-50.38921 -38.59782,-71.22872 -5.48124,-21.90426 -5.50467,-67.07113 -0.0468,-90.33864 14.91239,-63.57359 45.58917,-102.41391 125.63723,-159.07067 38.10021,-26.96682 55.74903,-41.7655 62.1527,-52.11567 3.92067,-6.33692 4.73652,-12.5325 4.73652,-35.9706 v -28.31513 l 16.46912,-2.45016 c 35.11703,-5.2245 54.05607,-15.14992 62.37932,-32.69147 4.63381,-9.76581 4.4406,-27.98046 -0.40518,-38.19294 -2.5199,-5.31079 -23.84627,-25.63839 -60.19955,-57.38016 -30.96344,-27.03569 -60.14267,-51.96366 -64.84281,-55.39554 -8.26247,-6.033 -8.49281,-6.63562 -6.95124,-18.18586 2.18492,-16.36993 14.4222,-48.46314 26.63531,-69.85304 26.56813,-46.53107 77.07263,-84.547184 135.86472,-102.26896 18.51125,-5.57991 24.34668,-6.197103 67.26579,-7.114565 42.46851,-0.907825 48.92054,-0.539692 66.97196,3.821216 46.39293,11.207799 82.84233,29.332164 113.75322,56.563559 29.53941,26.02308 47.88396,52.69743 62.90258,91.46478 7.32872,18.91747 8.05933,23.45527 9.05983,56.27493 2.19698,72.06333 -8.60412,98.4893 -70.25434,171.88433 -32.63097,38.84744 -35.47289,44.12125 -35.54458,65.95981 -0.0459,14.01135 0.9489,18.27401 5.72013,24.50853 14.13893,18.47528 37.86204,23.23313 115.84251,23.23313 66.52332,0 67.17997,-0.14523 113.31692,-25.06362 15.01733,-8.11077 36.3225,-19.5947 47.34485,-25.5198 11.02241,-5.92511 22.59105,-10.77292 25.70809,-10.77292 11.36612,0 29.27294,24.79727 38.13966,52.81548 2.96717,9.37608 4.46174,26.38363 5.35809,60.97264 1.09903,42.40882 0.59619,51.33169 -4.33787,76.97427 -24.28379,126.20302 -96.51649,213.9246 -218.7249,265.62616 -47.14864,19.9467 -88.47293,30.40511 -150.02592,37.96877 -26.9301,3.30914 -179.6209,6.43895 -197.56345,4.04956 z M 634.20864,883.4443 c 90.98418,-12.99451 178.24528,-69.04315 224.85844,-144.42878 18.37778,-29.72163 26.92935,-55.19528 26.92935,-80.21785 0,-23.22179 -1.9125,-27.38559 -16.13292,-35.12477 -11.97636,-6.5179 -19.99353,-5.87294 -50.03349,4.02512 -37.80502,12.45652 -50.20949,14.40144 -83.63422,13.11313 -21.83547,-0.84165 -42.03714,-3.72381 -83.30109,-11.88447 l -54.47483,-10.77338 -51.94115,-0.12084 -51.94112,-0.12055 -17.80039,8.37982 c -40.55511,19.09199 -66.51165,46.55476 -78.62939,83.19217 -5.7801,17.47584 -5.83777,56.98598 -0.11203,76.66704 13.0658,44.91041 64.14233,86.80136 118.50326,97.19184 22.0288,4.21051 88.53715,4.2678 117.70949,0.1014 z M 457.55831,290.36646 c 4.74511,-1.46466 12.15623,-6.52121 16.46912,-11.23686 7.68462,-8.40224 7.84162,-9.05768 7.84162,-32.74568 0,-26.90703 -2.19745,-31.70246 -19.23582,-41.97788 -7.57168,-4.56628 -11.03991,-5.11429 -28.16349,-4.45005 -18.82177,0.73012 -19.896,1.07361 -29.68784,9.49328 -5.58771,4.80466 -11.90719,11.97897 -14.0433,15.94292 -4.98644,9.25327 -5.1762,36.92756 -0.30946,45.13075 4.59596,7.74679 16.20266,17.42421 24.29646,20.25788 8.69341,3.04358 32.37182,2.81451 42.83271,-0.41436 z"
     id="path25" />
  <path
     style="display:inline;fill:#ffa107;fill-opacity:1;stroke-width:2.37761"
     d="M 203.16049,391.4701 C 150.99123,386.53962 83.187962,356.9282 61.871459,329.76561 54.582921,320.47817 43.589657,295.83755 45.847592,293.84924 c 0.713218,-0.62803 15.877325,0.99789 33.698002,3.61318 51.704156,7.5879 66.139636,6.26439 108.903886,-9.98494 14.20561,-5.39777 28.30686,-9.81414 31.3361,-9.81414 5.73765,0 9.68856,3.29709 45.00997,37.56164 11.60261,11.25539 30.54464,27.54936 42.09336,36.20878 11.54878,8.65941 22.55199,18.30166 24.45162,21.42725 3.12527,5.14229 2.9221,6.06206 -2.13578,9.66857 -3.07428,2.19211 -12.73893,5.06994 -21.47692,6.39518 -22.42557,3.4011 -80.54377,4.81579 -104.56734,2.54534 z"
     id="path26" />
  <use
     x="0"
     y="0"
     xlink:href="#g20"
     id="use26" />
</svg>
