<?xml version="1.0" encoding="UTF-8" standalone="no"?>
<svg
   version="1.0"
   width="1024.000000pt"
   height="1024.000000pt"
   viewBox="0 0 1024.000000 1024.000000"
   preserveAspectRatio="xMidYMid meet"
   id="svg20"
   sodipodi:docname="RubberDuck.svg"
   inkscape:version="1.4.2 (f4327f4, 2025-05-13)"
   xmlns:inkscape="http://www.inkscape.org/namespaces/inkscape"
   xmlns:sodipodi="http://sodipodi.sourceforge.net/DTD/sodipodi-0.dtd"
   xmlns="http://www.w3.org/2000/svg"
   xmlns:svg="http://www.w3.org/2000/svg">
  <defs
     id="defs20" />
  <sodipodi:namedview
     id="namedview20"
     pagecolor="#505050"
     bordercolor="#eeeeee"
     borderopacity="1"
     inkscape:showpageshadow="0"
     inkscape:pageopacity="0"
     inkscape:pagecheckerboard="0"
     inkscape:deskcolor="#505050"
     inkscape:document-units="pt"
     inkscape:zoom="0.85473633"
     inkscape:cx="682.66667"
     inkscape:cy="682.66667"
     inkscape:window-width="2560"
     inkscape:window-height="1369"
     inkscape:window-x="2552"
     inkscape:window-y="142"
     inkscape:window-maximized="1"
     inkscape:current-layer="svg20" />
  <metadata
     id="metadata1">
Created by potrace 1.16, written by Peter Selinger 2001-2019
</metadata>
  <g
     transform="translate(0.000000,1024.000000) scale(0.100000,-0.100000)"
     fill="#000000"
     stroke="none"
     id="g20">
    <path
      fill="#ffffff"
       d="M4431 7772 c-15 -28 -15 -1305 -1 -1333 10 -17 22 -19 113 -19 67 0 107 4 115 12 9 9 12 78 12 250 l0 238 43 0 42 0 89 -244 c50 -139 95 -247 103 -250 8 -3 59 -6 114 -6 81 0 101 3 106 16 3 8 -36 130 -87 269 l-93 255 51 45 c72 65 99 127 114 256 29 263 -43 435 -211 501 -50 20 -78 22 -278 26 -214 4 -222 3 -232 -16z m439 -237 c41 -39 53 -91 48 -205 -7 -156 -45 -200 -175 -200 l-73 0 0 221 0 221 84 -3 c78 -4 87 -6 116 -34z"
       id="path1" />
    <path
      fill="#ffffff"
       d="M5311 7776 c-9 -11 -11 -153 -9 -558 3 -499 5 -547 22 -592 58 -156 189 -234 375 -224 203 11 319 117 342 312 4 39 8 290 9 558 0 429 -2 488 -16 502 -12 12 -38 16 -114 16 -88 0 -100 -2 -110 -19 -6 -13 -10 -201 -10 -541 0 -572 1 -564 -60 -595 -38 -20 -83 -19 -126 1 -65 31 -64 17 -64 603 0 514 -1 531 -19 541 -31 16 -206 13 -220 -4z"
       id="path2" />
    <path
      fill="#ffffff"
       d="M6223 7779 c-10 -10 -13 -159 -13 -675 0 -566 2 -663 15 -674 10 -8 73 -11 237 -8 199 3 229 6 276 25 161 65 241 201 229 388 -7 110 -38 187 -98 246 l-48 46 28 27 c69 66 108 207 92 332 -12 98 -44 166 -102 218 -81 73 -110 79 -374 84 -177 2 -233 0 -242 -9z m415 -223 c44 -23 57 -59 57 -156 0 -134 -37 -170 -175 -170 l-70 0 0 170 0 170 80 0 c50 0 91 -5 108 -14z m8 -562 c55 -41 69 -70 72 -152 3 -65 0 -84 -20 -122 -32 -63 -71 -82 -166 -84 l-77 -1 -3 194 -2 193 84 -3 c66 -3 91 -9 112 -25z"
       id="path3" />
    <path
      fill="#ffffff"
       d="M7123 7779 c-10 -10 -13 -159 -13 -675 0 -566 2 -663 15 -674 10 -8 75 -11 242 -8 l228 3 67 32 c121 57 181 142 201 280 20 142 -16 267 -100 351 l-49 49 43 47 c62 69 87 157 81 282 -6 113 -36 183 -104 243 -77 68 -108 74 -369 79 -177 2 -233 0 -242 -9z m431 -238 c34 -32 50 -92 43 -164 -9 -106 -69 -152 -187 -145 l-55 3 -3 169 -2 168 89 -3 c78 -4 93 -7 115 -28z m-8 -547 c55 -41 69 -70 73 -155 4 -89 -6 -123 -49 -164 -23 -22 -43 -29 -108 -38 -44 -5 -87 -7 -96 -4 -14 6 -16 29 -16 190 0 101 3 187 8 191 4 4 42 6 84 4 58 -2 83 -8 104 -24z"
       id="path4" />
    <path
      fill="#ffffff"
       d="M8022 7778 c-19 -19 -17 -1331 2 -1347 9 -8 100 -11 312 -9 l299 3 3 99 c2 64 -1 103 -9 112 -9 11 -49 14 -190 14 l-179 0 2 173 3 172 142 0 c89 0 146 4 153 11 7 7 10 48 8 110 l-3 99 -150 5 -150 5 0 165 0 165 180 5 180 5 3 99 c2 64 -1 103 -9 112 -16 19 -578 21 -597 2z"
       id="path5" />
    <path
      fill="#ffffff"
       d="M8800 7781 c-13 -9 -15 -95 -17 -663 -1 -369 2 -663 7 -675 9 -22 15 -23 113 -23 67 0 107 4 115 12 9 9 12 78 12 250 l0 238 43 0 44 0 83 -227 c45 -126 89 -238 97 -250 13 -21 20 -23 117 -23 78 0 106 4 116 14 9 12 -7 65 -83 273 l-95 257 58 56 c50 49 61 66 82 131 30 96 33 310 5 401 -30 98 -118 188 -215 219 -48 15 -461 24 -482 10z m430 -246 c41 -39 53 -91 48 -205 -8 -157 -46 -200 -175 -200 l-73 0 0 221 0 221 84 -3 c78 -4 87 -6 116 -34z"
       id="path6" />
    <path
       d="M2315 7380 c-444 -70 -749 -366 -839 -814 l-22 -110 -75 -39 c-99 -51 -173 -58 -309 -28 -119 27 -175 27 -218 1 -47 -29 -65 -79 -60 -165 8 -125 71 -231 190 -320 131 -98 276 -154 480 -186 73 -11 144 -23 157 -26 48 -12 71 -130 35 -180 -11 -16 -79 -72 -150 -125 -292 -220 -425 -398 -500 -673 -25 -91 -28 -115 -28 -275 0 -162 2 -182 28 -265 51 -168 160 -336 290 -448 275 -236 649 -347 1174 -347 808 0 1392 303 1677 869 61 122 107 264 142 438 26 127 28 155 28 363 -1 200 -3 234 -23 303 -56 203 -175 336 -300 337 -55 0 -113 -30 -240 -124 -166 -123 -227 -147 -375 -147 -99 0 -266 18 -287 31 -22 14 -3 52 69 138 177 208 259 370 295 581 40 233 7 458 -96 666 -137 275 -353 446 -667 526 -89 22 -288 32 -376 19z m330 -159 c338 -82 560 -299 652 -639 22 -81 27 -118 27 -227 0 -256 -68 -424 -268 -663 -92 -110 -118 -158 -118 -228 -1 -80 37 -130 122 -158 70 -24 230 -39 353 -34 170 8 243 38 447 188 52 39 106 73 119 77 54 14 110 -49 154 -174 37 -102 51 -224 44 -378 -32 -678 -377 -1162 -966 -1355 -197 -64 -462 -100 -740 -100 -491 0 -832 97 -1077 306 -64 55 -163 182 -203 263 -131 258 -91 626 94 886 57 80 167 184 295 280 140 104 188 150 216 210 28 58 31 138 9 200 -8 22 -15 41 -15 41 0 1 29 4 64 8 35 3 85 14 111 22 126 44 169 185 89 291 -14 18 -67 66 -117 106 -58 46 -121 109 -166 166 -49 61 -90 101 -121 119 l-47 27 18 90 c55 273 200 474 430 598 123 67 239 95 399 96 82 1 138 -5 195 -18z m-1066 -918 c12 -10 52 -56 89 -103 40 -50 106 -116 164 -162 103 -83 127 -119 94 -144 -33 -23 -159 -39 -311 -38 -126 1 -165 5 -245 26 -188 50 -350 154 -402 258 -15 30 -30 70 -33 89 -7 33 -6 33 21 28 16 -2 75 -13 131 -23 137 -25 234 -12 343 45 84 44 118 49 149 24z"
       id="path7" />
    <path
       d="M2225 6602 c-105 -65 -137 -190 -70 -278 33 -44 79 -64 142 -64 102 0 160 77 150 198 -5 71 -23 103 -77 140 -41 27 -103 29 -145 4z"
       id="path8" />
    <path
       d="M2530 4970 c-258 -65 -426 -334 -376 -599 41 -217 183 -366 407 -428 50 -14 100 -18 224 -17 140 0 172 4 260 27 132 35 317 128 421 211 197 156 355 420 380 634 9 81 -13 127 -73 154 l-44 19 -87 -40 c-197 -90 -302 -90 -647 -4 -157 40 -196 46 -305 49 -69 2 -141 -1 -160 -6z m452 -190 c323 -80 468 -83 635 -16 l82 33 -6 -31 c-10 -55 -62 -181 -101 -244 -98 -161 -215 -270 -377 -352 -143 -72 -268 -103 -420 -104 -248 -1 -388 71 -468 243 -28 59 -32 76 -32 156 0 77 4 98 27 147 51 109 161 199 266 218 79 15 181 1 394 -50z"
       id="path9" />
    <path
      fill="#ffffff"
       d="M7396 6144 c-143 -35 -270 -133 -332 -259 -63 -129 -65 -156 -62 -754 3 -522 4 -538 26 -602 44 -133 127 -230 245 -287 83 -40 146 -53 258 -54 332 -3 519 173 545 514 4 47 4 97 0 112 l-6 26 -164 0 c-187 0 -176 6 -176 -94 0 -157 -64 -236 -191 -236 -97 0 -159 50 -179 146 -7 32 -10 219 -8 540 l3 490 25 49 c63 124 253 127 319 6 20 -36 25 -64 30 -155 l6 -111 159 -3 c116 -2 162 1 174 10 12 11 14 31 9 123 -11 192 -52 301 -151 401 -129 128 -341 184 -530 138z"
       id="path10" />
    <path
      fill="#ffffff"
       d="M4470 6122 c-14 -2 -31 -9 -37 -14 -10 -8 -13 -208 -13 -938 0 -806 2 -929 15 -940 24 -20 602 -17 682 3 186 48 306 167 360 357 16 59 18 111 18 570 0 452 -2 512 -18 570 -42 155 -123 264 -243 327 -104 55 -166 64 -468 67 -149 1 -282 0 -296 -2z m570 -342 c34 -19 51 -38 75 -84 l30 -60 3 -425 c4 -461 1 -498 -47 -573 -45 -71 -100 -93 -231 -93 l-105 0 -3 620 c-1 341 0 626 3 634 4 10 30 12 118 9 97 -3 118 -7 157 -28z"
       id="path11" />
    <path
      fill="#ffffff"
       d="M5750 6121 l-25 -7 -3 -734 c-2 -501 1 -756 8 -802 31 -183 164 -325 350 -374 78 -21 241 -23 320 -4 136 31 261 121 317 227 70 132 67 88 71 919 3 680 1 752 -13 764 -21 18 -274 22 -307 6 l-23 -12 -5 -734 c-5 -710 -6 -736 -25 -775 -27 -55 -83 -85 -157 -85 -68 0 -103 12 -141 48 -57 54 -57 60 -57 833 0 631 -2 708 -16 720 -17 14 -250 22 -294 10z"
       id="path12" />
    <path
      fill="#ffffff"
       d="M8320 6123 c-8 -3 -18 -11 -22 -17 -4 -6 -8 -428 -8 -938 0 -829 2 -928 16 -942 13 -13 42 -16 159 -16 117 0 146 3 159 16 14 13 16 52 16 275 l0 259 52 104 52 104 88 -211 c49 -117 117 -279 151 -362 34 -82 69 -157 79 -167 16 -16 37 -18 169 -18 145 0 189 7 189 32 0 10 -134 336 -356 868 l-94 224 197 355 c109 194 202 367 207 384 16 49 -3 55 -176 55 -83 1 -158 -3 -167 -8 -9 -4 -99 -172 -201 -373 l-185 -364 -3 357 c-2 307 -4 360 -18 370 -15 14 -274 24 -304 13z"
       id="path13" />
    <path
      fill="#ffffff"
       d="M9012 3936 c-112 -28 -198 -108 -228 -213 -23 -78 -16 -230 14 -296 28 -63 104 -142 232 -241 161 -124 201 -170 215 -249 9 -48 -17 -119 -52 -142 -15 -10 -45 -17 -75 -17 -86 1 -125 42 -136 144 l-7 63 -110 0 -110 0 2 -85 c2 -152 61 -252 181 -308 52 -25 68 -27 182 -27 122 0 127 1 193 33 128 63 183 168 175 336 -3 76 -9 102 -34 156 -41 86 -82 130 -243 258 -170 135 -193 163 -199 241 -4 57 12 110 39 127 25 15 82 22 113 13 49 -14 75 -48 86 -114 5 -32 13 -62 18 -67 5 -5 56 -7 113 -6 l104 3 -1 70 c-1 105 -26 169 -93 236 -38 37 -72 61 -106 73 -66 23 -205 29 -273 12z"
       id="path14" />
    <path
      fill="#ffffff"
       d="M5352 3928 c-18 -18 -17 -1334 1 -1345 21 -13 192 -16 216 -4 l21 12 0 664 c0 647 -1 665 -19 675 -28 14 -204 13 -219 -2z"
       id="path15" />
    <path
      fill="#ffffff"
       d="M7604 3922 c-12 -11 -14 -127 -14 -667 0 -581 2 -655 16 -669 18 -19 165 -23 208 -6 l26 10 0 664 c0 630 -1 666 -18 675 -28 15 -202 10 -218 -7z"
       id="path16" />
    <path
      fill="#ffffff"
       d="M8039 3926 c-15 -16 -12 -1329 3 -1344 9 -9 88 -12 295 -12 343 0 320 -9 313 130 l-5 95 -183 3 -182 2 2 173 3 172 145 3 c100 2 147 6 152 15 13 20 9 182 -4 195 -8 8 -57 12 -155 12 l-143 0 2 168 3 167 166 1 c92 1 174 4 183 7 13 5 16 24 16 107 0 72 -4 102 -12 105 -28 9 -589 10 -599 1z"
       id="path17" />
    <path
      fill="#ffffff"
       d="M4427 3923 c-4 -3 -7 -302 -7 -664 0 -604 1 -659 17 -674 15 -16 39 -17 227 -13 188 4 217 7 269 27 75 29 134 75 174 135 57 83 58 96 58 511 0 340 -2 386 -18 435 -38 115 -133 204 -252 235 -44 11 -112 15 -260 15 -111 0 -205 -3 -208 -7z m419 -229 c22 -10 43 -33 57 -58 21 -40 22 -50 22 -386 0 -329 -1 -347 -20 -380 -30 -51 -75 -72 -161 -78 l-74 -5 0 462 0 461 71 0 c45 0 84 -6 105 -16z"
       id="path18" />
    <path
      fill="#ffffff"
       d="M5981 3893 c-6 -21 -58 -263 -116 -538 -58 -275 -118 -557 -133 -626 -34 -164 -35 -163 101 -157 66 3 103 9 112 19 11 11 54 186 55 222 0 10 258 9 264 -2 3 -5 15 -53 26 -107 10 -54 26 -105 35 -113 22 -23 192 -28 220 -8 18 14 19 20 8 78 -16 87 -240 1151 -256 1214 l-12 50 -147 3 -147 3 -10 -38z m208 -593 c23 -140 41 -258 41 -262 0 -11 -177 -10 -184 0 -2 4 10 93 29 197 18 105 38 223 45 263 7 41 15 70 19 65 4 -4 26 -123 50 -263z"
       id="path19" />
    <path
      fill="#ffffff"
       d="M6697 3924 c-4 -4 -7 -305 -7 -669 0 -501 3 -664 12 -673 15 -15 181 -16 209 -2 18 10 19 24 19 250 l0 240 43 0 43 0 90 -242 90 -243 94 -8 c115 -10 145 -1 137 42 -3 16 -45 133 -92 261 l-86 233 50 44 c92 80 128 202 118 393 -9 177 -62 277 -178 341 l-64 34 -235 3 c-129 2 -238 0 -243 -4z m420 -230 c49 -36 63 -77 63 -192 0 -113 -11 -152 -55 -192 -23 -22 -38 -25 -111 -29 l-84 -3 0 214 c0 118 3 218 8 222 4 4 39 6 79 4 53 -2 79 -9 100 -24z"
       id="path20" />
  </g>
  <path
     style="fill:#ffcbcb;stroke-width:1.16995"
     d="m 300.82119,893.21518 c -43.59765,-3.03185 -78.85988,-14.04085 -105.35099,-32.89097 -16.19221,-11.52178 -32.13759,-31.52035 -39.20517,-49.1708 -11.4788,-28.66694 -8.51701,-66.29124 7.62784,-96.89805 9.08464,-17.22232 21.46748,-30.38555 47.81521,-50.82858 25.78693,-20.00791 29.90305,-25.43446 30.81016,-40.61891 0.36686,-6.14119 -0.0148,-10.58136 -1.21151,-14.09344 l -1.74712,-5.12752 9.97412,-1.36008 c 13.28517,-1.81156 21.64761,-5.91275 25.97732,-12.73999 4.25786,-6.71395 5.22299,-13.43424 3.00014,-20.89044 -2.05378,-6.88908 -4.30551,-9.47328 -20.24619,-23.23561 -6.59658,-5.69514 -16.2488,-15.32938 -21.44939,-21.40942 -8.37331,-9.78933 -13.56196,-14.51491 -20.37679,-18.55825 -1.90742,-1.1317 -1.90741,-1.72795 2.3e-4,-11.11454 7.77718,-38.26774 28.26069,-66.06927 60.64673,-82.31362 17.27057,-8.66266 25.77315,-10.45039 49.91565,-10.49517 18.99349,-0.0352 21.23563,0.19258 31.00371,3.14991 22.07193,6.6824 38.67257,16.54487 52.47358,31.17466 13.40804,14.21324 22.6995,31.23964 28.50073,52.22699 2.87447,10.39914 3.18795,13.41009 3.15124,30.26714 -0.0784,36.00594 -6.51435,51.14861 -39.78012,93.59611 -8.45527,10.78903 -11.35848,17.98373 -10.79946,26.76306 1.08418,17.02671 12.76746,22.55923 50.10556,23.72712 32.55501,1.01828 40.77724,-1.62827 71.22924,-22.92703 19.89908,-13.91783 21.18835,-14.2109 28.07891,-6.38281 22.28534,25.31749 19.94862,100.05049 -4.80668,153.72741 -23.69126,51.36973 -70.70999,87.08733 -131.47794,99.87667 -28.91411,6.08532 -71.70347,8.7823 -103.85901,6.54616 z m 102.51346,-53.83476 c 17.05018,-4.13433 38.98634,-14.3573 54.70134,-25.49263 17.14451,-12.14827 33.59599,-32.1337 43.92351,-53.35878 7.51387,-15.44249 11.0704,-27.6959 11.04696,-38.06048 -0.0203,-8.98978 -1.51018,-12.44302 -6.95001,-16.10891 -6.677,-4.49963 -8.53572,-4.43985 -20.23491,0.65078 -27.35799,11.90419 -38.61641,12.10896 -83.38516,1.5166 -26.3665,-6.23835 -32.47955,-7.12183 -49.35031,-7.13228 -12.0732,-0.007 -15.44865,0.41584 -21.85318,2.74057 -20.79724,7.54898 -37.68346,26.28959 -43.37404,48.13719 -2.10827,8.09423 -2.36196,24.71826 -0.51252,33.58482 6.08837,29.18861 32.86334,52.50009 64.22408,55.91635 13.35475,1.45479 41.20493,0.16719 51.76424,-2.39323 z m -86.6736,-310.70404 c 7.23587,-3.63995 10.97127,-12.74799 10.03984,-24.48017 -1.03214,-13.0007 -7.64945,-20.40579 -19.08215,-21.35388 -8.11825,-0.67323 -12.28357,1.08744 -18.03772,7.62451 -5.72924,6.50875 -7.4361,11.57799 -6.81053,20.22656 0.51763,7.15612 4.01451,13.32563 9.64348,17.01386 5.80925,3.80637 17.66493,4.28023 24.24708,0.96912 z"
     id="path21"
     transform="scale(0.75)" />
  <path
     style="fill:#fff159;stroke-width:1.16995;fill-opacity:1"
     d="m 357.43999,821.74375 c -23.45406,-2.7152 -38.65434,-13.30232 -47.35952,-32.98625 -2.56501,-5.79996 -2.96822,-8.38573 -2.96822,-19.03526 0,-10.85727 0.3636,-13.09215 3.05581,-18.78302 4.44643,-9.39899 15.46134,-20.65243 24.63525,-25.16872 13.41118,-6.60231 23.65831,-6.0984 64.15013,3.15457 43.87661,10.02644 64.33748,10.17188 86.44952,0.61451 3.14756,-1.36046 6.00571,-2.19071 6.35142,-1.84499 0.99405,0.99404 -3.12223,13.16403 -8.00943,23.68035 -6.16277,13.26107 -14.72688,25.25232 -25.43441,35.6126 -20.64631,19.97674 -46.02524,31.93797 -73.98149,34.8679 -12.54985,1.31528 -14.6378,1.30661 -26.88906,-0.11169 z"
     id="path22"
     transform="scale(0.75)" />
  <path
     style="fill:#ffed43;fill-opacity:1;stroke-width:1.16995"
     d="m 297.16767,892.53565 c -64.94168,-6.76979 -105.35915,-26.45716 -130.06724,-63.35581 -12.01412,-17.94171 -16.76167,-33.87338 -16.76167,-56.24834 0,-20.22006 4.4469,-38.88066 13.55641,-56.88698 8.65574,-17.10939 21.5558,-30.9765 49.03599,-52.71204 25.42251,-20.108 28.87398,-24.80172 29.61363,-40.27217 0.26419,-5.52567 -0.0624,-12.01235 -0.72576,-14.41482 -1.36104,-4.92929 -2.53433,-4.24193 11.47546,-6.72278 10.28233,-1.82079 16.23671,-4.61349 20.7174,-9.71678 6.55461,-7.46537 7.83551,-18.49584 3.26602,-28.12533 -1.30367,-2.74726 -8.42534,-10.16484 -18.80553,-19.58693 -9.18898,-8.34082 -16.87715,-15.66657 -17.08481,-16.27945 -0.66614,-1.96597 -18.98079,-20.00616 -22.31416,-21.97976 -3.9587,-2.34384 -3.99405,-3.88836 -0.41218,-18.00851 9.23118,-36.39041 29.49476,-61.61462 61.88642,-77.03652 14.38658,-6.84955 21.11665,-8.2563 42.95774,-8.9792 16.98242,-0.56209 20.46759,-0.34869 28.82624,1.76503 22.46214,5.6802 39.37667,14.87383 54.25922,29.49175 12.31169,12.09277 20.71525,24.73789 26.79942,40.32596 7.09221,18.17074 8.72556,28.31653 7.9166,49.17532 -1.26246,32.55232 -7.48416,46.99158 -36.29647,84.23651 -10.7347,13.87648 -13.63558,20.16435 -13.65021,29.58788 -0.0296,19.04195 10.51223,24.47261 49.7115,25.60914 33.99198,0.98554 38.95629,-0.48373 69.29704,-20.50956 12.35175,-8.15254 20.89597,-13.04336 22.78667,-13.04336 6.03052,0 14.38565,12.99735 18.68621,29.06849 3.07048,11.47433 4.24672,43.93071 2.20005,60.70598 -8.61841,70.63889 -42.80207,121.87631 -100.1005,150.03923 -34.73663,17.0735 -66.3221,23.29961 -121.67495,23.98451 -16.73031,0.207 -32.52465,0.15684 -35.09854,-0.11146 z M 390.16872,841.725 c 29.22704,-2.99925 60.7246,-18.45803 83.19243,-40.83022 18.32094,-18.24296 32.32543,-41.41035 37.84647,-62.60874 2.28195,-8.76173 2.37405,-23.06792 0.17586,-27.31874 -1.82162,-3.52262 -9.61708,-8.41146 -13.41244,-8.41146 -1.34727,0 -7.78748,2.12661 -14.31158,4.72581 -27.27157,10.86495 -36.45958,10.83382 -84.70602,-0.28701 -19.13941,-4.41166 -22.83968,-4.89919 -40.59173,-5.34816 -17.66795,-0.44685 -20.25606,-0.25327 -27.1108,2.02785 -9.13002,3.03828 -22.0351,11.85019 -28.65219,19.56445 -5.78874,6.74857 -12.10813,18.46127 -14.67794,27.20493 -2.95054,10.03905 -2.52095,32.50017 0.80835,42.26604 3.83804,11.25811 9.70493,20.19083 19.19601,29.22715 9.76565,9.29776 23.09153,16.35709 36.04058,19.0924 9.82368,2.07511 29.82606,2.37631 46.203,0.6957 z M 318.10077,528.47047 c 1.90479,-1.11247 4.7306,-4.38499 6.27956,-7.27228 2.49368,-4.64822 2.76446,-6.40943 2.36377,-15.37399 -0.37986,-8.4985 -0.94241,-10.86465 -3.50305,-14.73403 -3.91626,-5.91786 -9.3871,-8.4852 -18.08143,-8.4852 -8.17256,0 -13.22136,2.88144 -18.56851,10.59738 -2.97441,4.29205 -3.51026,6.24871 -3.79884,13.87156 -0.28438,7.51145 0.0751,9.57664 2.33991,13.44448 4.93964,8.43581 11.76908,11.55151 23.11031,10.54325 3.51726,-0.31268 7.95348,-1.47871 9.85828,-2.59117 z"
     id="path23"
     transform="scale(0.75)" />
  <path
     style="fill:#ffe707;fill-opacity:1;stroke-width:1.16995"
     d="m 356.95989,821.11742 c -23.32729,-3.3358 -39.76036,-15.46388 -46.94546,-34.64709 -3.61946,-9.66347 -3.0266,-27.51953 1.19265,-35.92039 4.17395,-8.31066 16.65849,-20.56718 25.15396,-24.69454 6.39341,-3.10611 8.06354,-3.40084 18.71922,-3.30346 8.43663,0.0771 16.59384,1.15757 29.24879,3.87415 58.65305,12.59081 73.68078,13.39224 97.49093,5.19916 4.71605,-1.62279 8.79761,-2.72754 9.07015,-2.455 0.27254,0.27254 -0.48934,3.34592 -1.69308,6.82973 -16.40463,47.47772 -55.42955,79.03317 -105.42228,85.2442 -11.31422,1.40566 -16.26221,1.38227 -26.81488,-0.12676 z"
     id="path24"
     transform="scale(0.75)" />
  <path
     style="fill:#ffe707;fill-opacity:1;stroke-width:1.16995"
     d="m 290.14796,891.37049 c -39.90485,-6.03475 -67.02077,-14.77721 -87.94377,-28.35403 -9.1955,-5.9669 -23.63037,-19.63375 -31.07969,-29.42606 -7.52921,-9.89732 -15.41474,-26.4228 -17.82269,-37.35049 -2.53097,-11.48603 -2.54179,-35.17036 -0.0216,-47.37124 6.88582,-33.33635 21.05095,-53.7032 58.01341,-83.41254 17.59294,-14.1407 25.74234,-21.90074 28.69926,-27.3281 1.81039,-3.32292 2.1871,-6.57172 2.1871,-18.86206 v -14.84771 l 7.60468,-1.28481 c 16.21542,-2.73958 24.96058,-7.94423 28.80388,-17.14255 2.13967,-5.12094 2.05045,-14.67223 -0.18709,-20.02739 -1.16358,-2.78485 -11.01112,-13.44411 -27.79736,-30.08867 -14.29748,-14.17681 -27.77111,-27.2484 -29.94141,-29.04799 -3.81522,-3.16354 -3.92159,-3.47955 -3.20975,-9.53618 1.00888,-8.58398 6.65949,-25.41282 12.29894,-36.62914 12.26792,-24.39968 35.58857,-44.33434 62.73602,-53.62719 8.54764,-2.92595 11.24218,-3.2496 31.06022,-3.73069 19.60999,-0.47604 22.58924,-0.283 30.92452,2.00375 21.42212,5.87708 38.25275,15.38102 52.52598,29.66046 13.63991,13.64583 22.11059,27.63316 29.04549,47.96176 3.38406,9.91983 3.7214,12.29934 4.18341,29.50911 1.01447,37.78815 -3.97298,51.64524 -32.44019,90.1317 -15.06747,20.37058 -16.37975,23.13603 -16.41284,34.58761 -0.0212,7.34719 0.43816,9.58241 2.64129,12.85164 6.52871,9.68794 17.48294,12.18284 53.49069,12.18284 30.71739,0 31.02059,-0.0762 52.32451,-13.14271 6.93429,-4.25308 16.77204,-10.27495 21.86165,-13.38192 5.08963,-3.10697 10.43149,-5.64904 11.87081,-5.64904 5.24833,0 13.51687,13.00304 17.6111,27.69507 1.3701,4.91657 2.06023,13.83489 2.47413,31.97246 0.50748,22.2381 0.27529,26.91702 -2.00305,40.36332 -11.2131,66.17759 -44.56681,112.17652 -100.99699,139.28747 -21.77105,10.45954 -40.85268,15.94365 -69.275,19.90984 -12.43507,1.73523 -82.9406,3.37642 -91.22563,2.12348 z m 106.61185,-50.1614 c 42.01227,-6.81398 82.30539,-36.20444 103.82919,-75.73471 8.48599,-15.58525 12.43471,-28.94297 12.43471,-42.06415 0,-12.17691 -0.88308,-14.3603 -7.44942,-18.41853 -5.53013,-3.4178 -9.2321,-3.0796 -23.10315,2.11067 -17.45659,6.53189 -23.1844,7.55175 -38.61841,6.87619 -10.08259,-0.44133 -19.4108,-1.95266 -38.46456,-6.23191 l -25.15395,-5.64928 -23.98401,-0.0633 -23.984,-0.0632 -8.21939,4.39416 c -18.72649,10.01135 -30.712,24.4121 -36.30741,43.62381 -2.66897,9.16388 -2.6956,29.88198 -0.0517,40.20221 6.03319,23.54986 29.61794,45.51639 54.71931,50.96488 10.17187,2.20788 40.88235,2.23793 54.35277,0.0532 z M 315.19087,530.21446 c 2.19109,-0.76803 5.6132,-3.41957 7.60469,-5.89232 3.54841,-4.40592 3.62089,-4.74962 3.62089,-17.17099 0,-14.10935 -1.01467,-16.62395 -8.88221,-22.01211 -3.49624,-2.39444 -5.0977,-2.6818 -13.00457,-2.33349 -8.69103,0.38285 -9.18706,0.56297 -13.70848,4.97802 -2.58014,2.51944 -5.49818,6.28147 -6.48454,8.36006 -2.3025,4.85217 -2.39013,19.36385 -0.1429,23.6654 2.1222,4.06221 7.48164,9.1368 11.21899,10.6227 4.0142,1.59598 14.9478,1.47586 19.77813,-0.21727 z"
     id="path25"
     transform="scale(0.75)" />
  <path
     style="fill:#ffa107;fill-opacity:1;stroke-width:1.16995"
     d="m 197.72179,583.23058 c -24.08934,-2.58542 -55.39774,-18.11287 -65.24072,-32.35623 -3.36551,-4.87009 -8.44169,-17.791 -7.39908,-18.83361 0.32933,-0.32933 7.33141,0.52326 15.56017,1.89465 23.87459,3.9789 30.54022,3.28488 50.28676,-5.23584 6.5595,-2.83046 13.0708,-5.14628 14.46955,-5.14628 2.64939,0 4.47373,1.72891 20.78352,19.69634 5.35754,5.90205 14.10408,14.44618 19.43676,18.98695 5.33269,4.54077 10.41347,9.59692 11.29062,11.2359 1.44311,2.69647 1.34929,3.17878 -0.9862,5.06994 -1.41956,1.14949 -5.88224,2.65855 -9.91705,3.35347 -10.35508,1.78345 -37.19136,2.52528 -48.28433,1.33471 z"
     id="path26"
     transform="scale(0.75)" />
</svg>
